<svg xmlns="http://www.w3.org/2000/svg" width="472" height="364" fill="none" viewBox="0 0 472 364">
    <g clip-path="url(#clip0)">
        <g clip-path="url(#clip1)">
            <rect width="474" height="364" fill="#FFFCE0" rx="8"/>
            <path stroke="#BFB337" stroke-width="2" d="M196.563-204.35c-97.113-30.73-151.56 23.224-171.682 84.611C4.759-58.352 31.098 25.367 15.72 84.206c-15.378 58.84-73.846 87.717-73.846 87.717" opacity=".12"/>
            <path stroke="#BFB337" stroke-width="2" d="M209.36-87.192C112.247-117.92 57.8-63.968 37.678-2.58c-20.122 61.387 6.217 145.105-9.16 203.945-15.378 58.839-73.846 87.716-73.846 87.716" opacity=".12"/>
            <path stroke="#BFB337" stroke-width="2" d="M183.413-102.658C84.228-88.751 45.674-13.65 41.357 53.295 37.039 120.24 82 187.745 81.559 250.182c-.442 62.436-48.806 115.606-48.806 115.606M710.594-156.869c-148.856-47.102-232.313 35.598-263.156 129.693-30.843 94.095 9.53 222.42-14.041 312.609-23.571 90.19-113.191 134.452-113.191 134.452" opacity=".12"/>
            <path stroke="#BFB337" stroke-width="2" d="M630.563 41.307c-97.113-30.73-151.56 23.224-171.682 84.611-20.122 61.387 6.217 145.106-9.161 203.945-15.377 58.84-73.845 87.717-73.845 87.717" opacity=".12"/>
        </g>
        <path fill="#BFB337" fill-rule="evenodd" d="M177.16 92.378c-1.884-1.854-4.918-1.835-6.778.043-1.86 1.878-1.84 4.904.044 6.758L295.84 222.622c1.884 1.854 4.918 1.835 6.778-.043 1.86-1.878 1.84-4.904-.044-6.758L291.52 204.94v-10.849c0-4.623-3.78-8.384-8.427-8.384H271.98l-3.552-3.496h14.665c4.647 0 8.427-3.76 8.427-8.384v-16.841c0-4.622-3.78-8.384-8.427-8.384h-48.811l-3.551-3.496h52.36c4.647 0 8.427-3.762 8.427-8.384v-16.84c.002-2.286-.947-4.334-2.447-5.844l-.068-.077-.152-.142-.253-.234c-16.947-15.766-20.454-16.318-21.606-16.337h-71.448c-.756.013-2.531.255-8.465 4.892l-9.919-9.762zm13.991 13.771l5.434 5.348h81.221c-5.027-4.362-9.619-8.008-11.179-8.603h-70.716c-.842.32-2.564 1.527-4.76 3.255zm55.661 76.062l-34.14-33.609h-33.229c-4.647 0-8.427 3.762-8.427 8.384v16.841c0 4.624 3.781 8.384 8.427 8.384h67.369zm-72.876-68.623c.559-.52 1.104-1.024 1.634-1.511l12.585 12.388c-2.673.212-4.776 2.441-4.776 5.161 0 2.859 2.324 5.176 5.192 5.176 2.75 0 5-2.131 5.181-4.826l15.369 15.13h-29.679c-4.646 0-8.428-3.76-8.428-8.384v-16.84c0-2.285.949-4.33 2.447-5.84.015-.013.026-.027.037-.042.011-.013.021-.027.035-.039l.282-.26.121-.113zm110.462 105.626l-34.035-33.507h-70.92c-4.647 0-8.427 3.761-8.427 8.384v16.84c0 4.623 3.781 8.384 8.427 8.384h103.65c.444 0 .88-.035 1.305-.101zm-95.827-11.142c2.868 0 5.192-2.318 5.192-5.177 0-2.859-2.324-5.176-5.192-5.176-2.868 0-5.192 2.317-5.192 5.176s2.324 5.177 5.192 5.177zm22.766-5.177c0 2.859-2.324 5.177-5.192 5.177-2.868 0-5.192-2.318-5.192-5.177 0-2.859 2.324-5.176 5.192-5.176 2.868 0 5.192 2.317 5.192 5.176zm-17.574-36.635c0 2.859-2.324 5.177-5.192 5.177-2.868 0-5.192-2.318-5.192-5.177 0-2.859 2.324-5.176 5.192-5.176 2.868 0 5.192 2.317 5.192 5.176zm12.382 5.177c2.868 0 5.192-2.318 5.192-5.177 0-2.859-2.324-5.176-5.192-5.176-2.868 0-5.192 2.317-5.192 5.176s2.324 5.177 5.192 5.177z" clip-rule="evenodd"/>
        <path fill="#BFB337" d="M154.421 264.408c-1.814 0-3.412-.289-4.794-.867-1.372-.578-2.448-1.439-3.23-2.584-.771-1.156-1.156-2.59-1.156-4.301v-.493-.51h5.287v.901c0 1.167.328 2.063.986 2.686.657.623 1.632.935 2.924.935 1.303 0 2.306-.204 3.009-.612.702-.419 1.054-1.105 1.054-2.057 0-.669-.267-1.258-.799-1.768-.522-.51-1.236-.963-2.142-1.36-.896-.408-1.921-.788-3.077-1.139-1.258-.397-2.426-.918-3.502-1.564-1.077-.646-1.944-1.468-2.601-2.465-.646-.997-.969-2.227-.969-3.689 0-1.473.391-2.726 1.173-3.757.782-1.043 1.847-1.836 3.196-2.38 1.348-.555 2.873-.833 4.573-.833 1.779 0 3.349.278 4.709.833 1.371.544 2.442 1.366 3.213 2.465.782 1.088 1.173 2.448 1.173 4.08v1.02h-5.27v-.391-.391c0-1.099-.306-1.944-.918-2.533-.601-.589-1.547-.884-2.839-.884-1.247 0-2.216.227-2.907.68-.68.453-1.02 1.15-1.02 2.091 0 .68.243 1.258.731 1.734.498.476 1.178.901 2.04 1.275.861.374 1.841.748 2.941 1.122 1.496.521 2.799 1.099 3.91 1.734 1.122.623 1.989 1.411 2.601 2.363.612.941.918 2.142.918 3.604 0 1.496-.386 2.771-1.156 3.825-.771 1.054-1.853 1.859-3.247 2.414-1.383.544-2.987.816-4.811.816zm14.689-7.854v-3.485h11.968l-.51.884v-.255-.255c0-.646-.153-1.264-.459-1.853-.306-.601-.782-1.088-1.428-1.462-.634-.385-1.45-.578-2.448-.578-.997 0-1.858.215-2.584.646-.714.419-1.263 1.026-1.649 1.819-.374.793-.561 1.751-.561 2.873 0 1.156.182 2.148.544 2.975.374.816.924 1.445 1.649 1.887.737.442 1.649.663 2.737.663.703 0 1.309-.062 1.819-.187.51-.136.924-.306 1.241-.51.329-.204.578-.431.748-.68.17-.249.272-.493.306-.731h5.202c-.068.759-.328 1.507-.782 2.244-.453.725-1.082 1.383-1.887 1.972-.804.578-1.785 1.037-2.941 1.377-1.144.34-2.453.51-3.927.51-1.994 0-3.734-.397-5.219-1.19-1.484-.805-2.635-1.91-3.451-3.315-.816-1.417-1.224-3.049-1.224-4.896 0-1.87.414-3.508 1.241-4.913.839-1.417 2.001-2.516 3.485-3.298 1.496-.793 3.225-1.19 5.185-1.19 2.006 0 3.74.402 5.202 1.207 1.462.793 2.59 1.91 3.383 3.349.794 1.428 1.19 3.094 1.19 4.998 0 .283-.005.555-.017.816-.011.261-.028.453-.051.578H169.11zM189.234 264v-18.054h5.287v6.222l-1.088-.68c.124-.85.351-1.632.68-2.346.328-.714.753-1.332 1.275-1.853.521-.533 1.139-.946 1.853-1.241.725-.295 1.552-.442 2.482-.442.725 0 1.292.057 1.7.17.419.102.68.181.782.238l-.867 4.726c-.102-.057-.329-.147-.68-.272-.352-.125-.805-.187-1.36-.187-.907 0-1.666.153-2.278.459-.612.306-1.105.714-1.479 1.224-.363.499-.624 1.054-.782 1.666-.159.612-.238 1.23-.238 1.853V264h-5.287zm32.213-18.054L215.973 264h-7.106l-5.593-18.054h5.44l4.114 16.456h-.816l3.978-16.456h5.457zm3.81 10.608v-3.485h11.968l-.51.884v-.255-.255c0-.646-.153-1.264-.459-1.853-.306-.601-.782-1.088-1.428-1.462-.635-.385-1.451-.578-2.448-.578-.998 0-1.859.215-2.584.646-.714.419-1.264 1.026-1.649 1.819-.374.793-.561 1.751-.561 2.873 0 1.156.181 2.148.544 2.975.374.816.923 1.445 1.649 1.887.736.442 1.649.663 2.737.663.702 0 1.309-.062 1.819-.187.51-.136.923-.306 1.241-.51.328-.204.578-.431.748-.68.17-.249.272-.493.306-.731h5.202c-.068.759-.329 1.507-.782 2.244-.454.725-1.083 1.383-1.887 1.972-.805.578-1.785 1.037-2.941 1.377-1.145.34-2.454.51-3.927.51-1.995 0-3.735-.397-5.219-1.19-1.485-.805-2.635-1.91-3.451-3.315-.816-1.417-1.224-3.049-1.224-4.896 0-1.87.413-3.508 1.241-4.913.838-1.417 2-2.516 3.485-3.298 1.496-.793 3.224-1.19 5.185-1.19 2.006 0 3.74.402 5.202 1.207 1.462.793 2.589 1.91 3.383 3.349.793 1.428 1.19 3.094 1.19 4.998 0 .283-.006.555-.017.816-.012.261-.029.453-.051.578h-16.762zM245.38 264v-18.054h5.287v6.222l-1.088-.68c.125-.85.352-1.632.68-2.346.329-.714.754-1.332 1.275-1.853.522-.533 1.139-.946 1.853-1.241.726-.295 1.553-.442 2.482-.442.726 0 1.292.057 1.7.17.42.102.68.181.782.238l-.867 4.726c-.102-.057-.328-.147-.68-.272-.351-.125-.804-.187-1.36-.187-.906 0-1.666.153-2.278.459-.612.306-1.105.714-1.479 1.224-.362.499-.623 1.054-.782 1.666-.158.612-.238 1.23-.238 1.853V264h-5.287zm21.096-26.571V264h-5.202v-26.571h5.202zm6.228 19.125v-3.485h11.968l-.51.884v-.255-.255c0-.646-.153-1.264-.459-1.853-.306-.601-.782-1.088-1.428-1.462-.635-.385-1.451-.578-2.448-.578-.997 0-1.859.215-2.584.646-.714.419-1.264 1.026-1.649 1.819-.374.793-.561 1.751-.561 2.873 0 1.156.181 2.148.544 2.975.374.816.924 1.445 1.649 1.887.737.442 1.649.663 2.737.663.703 0 1.309-.062 1.819-.187.51-.136.924-.306 1.241-.51.329-.204.578-.431.748-.68.17-.249.272-.493.306-.731h5.202c-.068.759-.329 1.507-.782 2.244-.453.725-1.082 1.383-1.887 1.972-.805.578-1.785 1.037-2.941 1.377-1.145.34-2.454.51-3.927.51-1.995 0-3.734-.397-5.219-1.19-1.485-.805-2.635-1.91-3.451-3.315-.816-1.417-1.224-3.049-1.224-4.896 0-1.87.414-3.508 1.241-4.913.839-1.417 2-2.516 3.485-3.298 1.496-.793 3.224-1.19 5.185-1.19 2.006 0 3.74.402 5.202 1.207 1.462.793 2.59 1.91 3.383 3.349.793 1.428 1.19 3.094 1.19 4.998 0 .283-.006.555-.017.816-.011.261-.028.453-.051.578h-16.762zm27.638 7.854c-1.077 0-2.114-.125-3.111-.374-.998-.249-1.893-.618-2.686-1.105-.782-.487-1.406-1.094-1.87-1.819-.454-.737-.68-1.592-.68-2.567v-.153-.153h5.236v.238c0 .657.289 1.139.867 1.445.589.306 1.382.459 2.38.459.521 0 1.02-.051 1.496-.153.487-.113.884-.289 1.19-.527.317-.249.476-.561.476-.935 0-.601-.335-1.026-1.003-1.275-.658-.249-1.717-.499-3.179-.748-.828-.136-1.666-.329-2.516-.578-.85-.249-1.632-.578-2.346-.986-.714-.419-1.287-.946-1.717-1.581-.431-.646-.646-1.428-.646-2.346 0-1.224.368-2.255 1.105-3.094.748-.839 1.739-1.473 2.975-1.904 1.235-.431 2.595-.646 4.08-.646 1.416 0 2.737.238 3.961.714 1.224.465 2.215 1.139 2.975 2.023.759.873 1.139 1.927 1.139 3.162v.238h-5.185v-.119-.085c0-.453-.148-.822-.442-1.105-.284-.283-.646-.493-1.088-.629-.442-.147-.901-.221-1.377-.221-.431 0-.879.051-1.343.153-.454.091-.839.249-1.156.476-.318.215-.476.521-.476.918 0 .385.17.703.51.952.34.238.816.436 1.428.595.612.147 1.32.289 2.125.425.759.125 1.558.3 2.397.527.85.215 1.643.527 2.38.935.748.397 1.348.924 1.802 1.581.464.646.697 1.468.697 2.465 0 1.031-.238 1.915-.714 2.652-.476.737-1.122 1.337-1.938 1.802-.805.453-1.706.788-2.703 1.003-.986.227-2.001.34-3.043.34zm19.191 0c-1.077 0-2.114-.125-3.111-.374-.997-.249-1.893-.618-2.686-1.105-.782-.487-1.405-1.094-1.87-1.819-.453-.737-.68-1.592-.68-2.567v-.153-.153h5.236v.238c0 .657.289 1.139.867 1.445.589.306 1.383.459 2.38.459.521 0 1.02-.051 1.496-.153.487-.113.884-.289 1.19-.527.317-.249.476-.561.476-.935 0-.601-.334-1.026-1.003-1.275-.657-.249-1.717-.499-3.179-.748-.827-.136-1.666-.329-2.516-.578-.85-.249-1.632-.578-2.346-.986-.714-.419-1.286-.946-1.717-1.581-.431-.646-.646-1.428-.646-2.346 0-1.224.368-2.255 1.105-3.094.748-.839 1.74-1.473 2.975-1.904 1.235-.431 2.595-.646 4.08-.646 1.417 0 2.737.238 3.961.714 1.224.465 2.216 1.139 2.975 2.023.759.873 1.139 1.927 1.139 3.162v.238h-5.185v-.119-.085c0-.453-.147-.822-.442-1.105-.283-.283-.646-.493-1.088-.629-.442-.147-.901-.221-1.377-.221-.431 0-.878.051-1.343.153-.453.091-.839.249-1.156.476-.317.215-.476.521-.476.918 0 .385.17.703.51.952.34.238.816.436 1.428.595.612.147 1.32.289 2.125.425.759.125 1.558.3 2.397.527.85.215 1.643.527 2.38.935.748.397 1.349.924 1.802 1.581.465.646.697 1.468.697 2.465 0 1.031-.238 1.915-.714 2.652-.476.737-1.122 1.337-1.938 1.802-.805.453-1.706.788-2.703 1.003-.986.227-2 .34-3.043.34z"/>
    </g>
    <defs>
        <clipPath id="clip0">
            <path fill="#fff" d="M0 8c0-4.418 3.582-8 8-8h456c4.418 0 8 3.582 8 8v348c0 4.418-3.582 8-8 8H8c-4.418 0-8-3.582-8-8V8z"/>
        </clipPath>
        <clipPath id="clip1">
            <path fill="#fff" d="M0 0H474V364H0z"/>
        </clipPath>
    </defs>
</svg>
